<svg width="45" height="45" viewBox="0 0 45 45" fill="none" xmlns="http://www.w3.org/2000/svg">
<g clip-path="url(#clip0_162_1453)">
<path d="M8.87899 0C9.46295 0.27793 9.572 0.781018 9.46998 1.40724C9.69512 1.40724 9.8675 1.40724 10.0364 1.40724C13.7547 1.40724 17.4765 1.41779 21.1949 1.40372C22.8096 1.39669 24.2343 1.8857 25.5042 2.87429C26.7847 3.87343 28.0793 4.85498 29.3598 5.85763C29.6236 6.0652 29.8874 6.16371 30.2322 6.16371C33.8626 6.14964 37.4965 6.15667 41.1269 6.15667C42.6395 6.15667 43.5894 7.10656 43.5894 8.62286C43.5894 12.9572 43.5894 17.2915 43.5894 21.6258C43.5894 23.1245 42.6571 24.0849 41.1691 24.0884C38.0206 24.099 34.8722 24.0919 31.7237 24.0884C31.0378 24.0884 30.6614 23.7577 30.6754 23.1878C30.686 22.6495 31.0765 22.3259 31.7237 22.3259C33.6585 22.3259 35.5898 22.3259 37.5246 22.3259C37.6829 22.3259 37.8447 22.3259 38.0171 22.3259C38.5096 20.2854 39.762 19.0188 41.8093 18.5228V11.7223C39.7936 11.2333 38.5237 9.98788 38.0206 7.92979C37.9081 7.92276 37.7814 7.9122 37.6548 7.9122C31.8117 7.9122 25.9686 7.9122 20.1255 7.9122C19.3621 7.9122 18.9435 8.27809 18.9611 8.90783C18.9716 9.28426 19.1721 9.53405 19.4852 9.70995C20.815 10.4452 22.1447 11.1805 23.5131 11.9369C23.6187 11.8208 23.7242 11.7082 23.8297 11.5957C25.2791 10.0371 27.5868 9.53757 29.5532 10.3573C31.5654 11.1946 32.867 13.2175 32.765 15.3495C32.663 17.5272 31.1925 19.4164 29.0994 20.0637C27.0099 20.7075 24.7584 19.9687 23.4463 18.1815C23.2423 17.9036 23.0558 17.8649 22.7287 17.8649C22.106 17.8649 21.4798 17.7594 20.8642 17.6609C18.8591 17.3372 16.8539 17.003 14.9508 16.2501C14.4371 16.046 13.9306 15.8314 13.3818 15.6098V18.5193C15.387 19.0048 16.671 20.2572 17.1705 22.3329C17.3253 22.3329 17.4836 22.3329 17.6419 22.3329C19.5908 22.3329 21.5361 22.3329 23.485 22.3329C24.1288 22.3329 24.5122 22.6671 24.5157 23.2124C24.5157 23.7612 24.1428 24.0919 23.492 24.0919C20.3295 24.0919 17.167 24.099 14.0009 24.0919C12.5375 24.0884 11.6018 23.1209 11.6018 21.6539C11.6018 19.4445 11.5947 17.2316 11.6088 15.0223C11.6088 14.7338 11.5209 14.5755 11.2781 14.4312C10.7399 14.1111 10.2474 13.6784 9.48757 13.9669C9.48757 14.2448 9.49461 14.5755 9.48757 14.9062C9.47702 15.4656 9.13931 15.8174 8.58701 15.8209C6.02251 15.8279 3.46154 15.8279 0.897045 15.8209C0.344747 15.8209 0 15.4656 0 14.9027C0 10.2377 0.00703565 5.58322 0 0.92526C0 0.464389 0.256801 0.20405 0.615619 0H8.87547H8.87899ZM9.50868 12.0917C9.57903 12.1093 9.60718 12.1234 9.6318 12.1234C9.95544 12.1234 10.2791 12.0987 10.5957 12.1374C10.8455 12.1691 11.1269 12.2219 11.3274 12.3591C13.6386 13.9457 16.1644 15.0047 18.9189 15.5183C19.9812 15.7153 21.0436 15.9229 22.113 16.0636C22.4508 16.1094 22.8694 16.0566 23.1578 15.8877C24.0091 15.3987 23.9318 14.2061 23.0347 13.6995C21.5607 12.8622 20.0621 12.0671 18.5882 11.2298C17.4554 10.586 16.9454 9.36166 17.2584 8.16551C17.5786 6.94824 18.6409 6.15315 19.9636 6.15315C22.0708 6.15315 24.1815 6.15315 26.2887 6.15315C26.4329 6.15315 26.5807 6.15315 26.7249 6.15315C25.9545 5.46009 25.1735 4.86905 24.4031 4.26394C23.4322 3.49699 22.3311 3.15925 21.1034 3.16277C17.3992 3.16981 13.6949 3.16277 9.99062 3.16277C9.83584 3.16277 9.67753 3.16277 9.50868 3.16277V12.0917ZM1.79057 1.77664V14.0267H7.71459V1.77664H1.79057ZM24.7444 16.915C25.6344 18.368 27.4848 18.9133 29.022 18.1956C30.591 17.4638 31.3649 15.6731 30.8126 14.0442C30.0035 11.6519 26.9043 10.9413 25.1841 12.7601C25.0891 12.8622 24.9941 13.0944 25.0469 13.1858C25.7892 14.4946 25.6625 15.7259 24.7444 16.915ZM41.8375 9.88586C41.8375 9.37925 41.848 8.94301 41.8375 8.51028C41.8269 8.15143 41.6299 7.93331 41.2711 7.91572C40.8243 7.89461 40.3776 7.9122 39.864 7.9122C40.2087 8.90431 40.8279 9.52701 41.841 9.88938L41.8375 9.88586ZM13.3642 20.3557C13.3642 20.8658 13.322 21.3197 13.3853 21.7594C13.4135 21.9565 13.6316 22.259 13.7969 22.2836C14.2859 22.354 14.7889 22.3083 15.3377 22.3083C14.9683 21.3162 14.3562 20.6899 13.3642 20.3592V20.3557ZM39.8675 22.3153C40.3987 22.3153 40.8806 22.361 41.345 22.2942C41.5244 22.2696 41.7812 22.0022 41.8093 21.8192C41.8762 21.3584 41.8304 20.8799 41.8304 20.3557C40.8349 20.704 40.2122 21.3197 39.8675 22.3153Z" fill="#4761B9"/>
<path d="M45.0007 44.3773C44.765 44.8558 44.3815 45.0035 43.8539 45C41.4688 44.9789 39.0802 44.9894 36.6916 44.9894C35.8332 44.9894 35.5975 44.7924 35.4674 43.934C35.2985 43.934 35.1261 43.934 34.9538 43.934C29.7404 43.934 24.5269 43.927 19.3135 43.934C15.7992 43.9411 12.8091 42.6921 10.322 40.2224C8.76357 38.6745 7.20517 37.1265 5.66437 35.5609C4.8025 34.6849 4.52459 33.626 4.89396 32.4509C5.25982 31.2935 6.08299 30.5864 7.27201 30.3647C8.34143 30.1642 9.26662 30.4984 10.0335 31.2618C11.4336 32.6585 12.8302 34.0552 14.2268 35.4554C14.8424 36.0711 15.5354 36.5636 16.3163 36.8837C16.355 36.3666 16.3339 35.8529 16.4465 35.3674C16.7525 34.0798 17.9275 33.151 19.2537 33.1264C20.791 33.1018 22.3283 33.0948 23.8656 33.1264C24.3581 33.137 24.6712 32.9822 24.9631 32.5952C25.8778 31.3885 26.9965 30.4104 28.4001 29.8018C30.6339 28.8379 32.8783 28.8167 35.1297 29.7455C35.2352 29.7877 35.3407 29.8335 35.485 29.8933C35.6855 29.2354 36.1815 29.158 36.7725 29.1615C39.1294 29.1826 41.4864 29.1826 43.8468 29.1615C44.3745 29.158 44.7579 29.3058 44.9936 29.7842V44.3703L45.0007 44.3773ZM35.5096 42.182C35.5096 38.875 35.5096 35.6419 35.5096 32.4052C35.5096 32.3313 35.5377 32.2434 35.5026 32.1871C35.4146 32.0393 35.3337 31.8564 35.1965 31.772C32.5441 30.1712 29.086 30.6778 26.9789 32.9751C26.5532 33.4395 26.1487 33.9215 25.7547 34.4105C25.4838 34.7412 25.1637 34.889 24.731 34.8855C22.9897 34.8714 21.2448 34.882 19.5035 34.8784C18.9406 34.8784 18.5044 35.0966 18.2476 35.6032C17.8009 36.4827 18.4306 37.4431 19.4613 37.4466C22.5077 37.4537 25.5541 37.4466 28.6006 37.4466C29.4167 37.4466 29.86 37.7633 29.8564 38.3473C29.8564 38.9278 29.4167 39.2374 28.5935 39.2374C25.533 39.2374 22.4725 39.2198 19.412 39.2444C16.7842 39.262 14.5609 38.3614 12.7282 36.4686C11.4442 35.1423 10.1215 33.8582 8.81986 32.5494C8.4927 32.2187 8.10926 32.0253 7.64138 32.0991C7.12426 32.1836 6.76193 32.4756 6.59307 32.9822C6.41718 33.5134 6.579 33.9602 6.95893 34.3437C8.47863 35.867 10.0089 37.3798 11.5215 38.9137C13.7026 41.1231 16.3515 42.1855 19.4437 42.182C24.629 42.1785 29.8107 42.182 34.996 42.182C35.1543 42.182 35.3126 42.182 35.5166 42.182H35.5096ZM37.2931 30.9417V43.2058H43.2066V30.9417H37.2931Z" fill="#4761B9"/>
<path d="M27.5897 24.0814C27.0867 24.0814 26.7138 23.6944 26.7208 23.1913C26.7278 22.7164 27.1113 22.3364 27.5827 22.3294C28.0752 22.3223 28.4727 22.7129 28.4727 23.2089C28.4727 23.712 28.0928 24.0884 27.5897 24.0849V24.0814Z" fill="#4761B9"/>
<path d="M36.7234 15.9968C36.2204 15.9898 35.851 15.6063 35.8615 15.0997C35.8721 14.6247 36.2555 14.2448 36.7269 14.2413C37.2194 14.2377 37.6134 14.6318 37.6134 15.1243C37.6134 15.6274 37.23 16.0003 36.7234 15.9933V15.9968Z" fill="#4761B9"/>
</g>
<defs>
<clipPath id="clip0_162_1453">
<rect width="45" height="45" fill="white"/>
</clipPath>
</defs>
</svg>
