<svg width="44" height="45" viewBox="0 0 44 45" fill="none" xmlns="http://www.w3.org/2000/svg">
<path d="M39.7404 13.9861C39.7404 16.0087 39.7432 17.9934 39.7377 19.9781C39.7377 20.3161 39.7187 20.6595 39.6481 20.9866C39.2706 22.7766 37.72 24.034 35.8952 24.0475C35.1185 24.0529 34.3419 24.0475 33.5082 24.0475C33.5082 24.2557 33.5082 24.426 33.5082 24.5991C33.5082 26.6838 33.4973 28.7686 33.5082 30.8533C33.5218 33.0273 32.6528 34.7578 30.9257 36.0692C30.8524 36.126 30.779 36.1828 30.6595 36.272C31.7974 37.094 31.9847 38.2702 31.9739 39.5167C31.9657 40.3739 31.9657 41.231 31.9413 42.0855C31.8979 43.6051 30.5482 44.9814 29.0221 44.9868C23.9575 45.0057 18.8929 45.003 13.8311 44.9868C12.4244 44.9814 11.0802 43.8106 10.958 42.3694C10.8467 41.0553 10.8901 39.7195 10.9553 38.4C10.9988 37.532 11.4496 36.8128 12.18 36.2909C11.8053 35.9638 11.4441 35.6934 11.1318 35.3716C9.97228 34.1873 9.36127 32.765 9.35856 31.1021C9.35313 28.7767 9.35856 26.4486 9.35856 24.0475C8.8779 24.0475 8.41354 24.0475 7.95189 24.0475C5.56761 24.0448 3.90839 22.3981 3.90568 20.0321C3.90568 18.0312 3.90568 16.0276 3.90568 14.0132C3.54994 13.9537 3.21592 13.9185 2.89277 13.8347C1.21183 13.4102 0.0142568 11.8689 0.00611005 10.133C-0.00203668 8.03205 -0.00203668 5.93109 0.00611005 3.83013C0.0169724 1.72106 1.7305 0.00675985 3.84865 0.00405591C15.8271 -0.00135197 27.8055 -0.00135197 39.7839 0.00405591C41.9075 0.00405591 43.6237 1.71295 43.6346 3.82202C43.6454 5.80941 43.5721 7.79952 43.6536 9.78421C43.7405 11.8987 42.2116 13.8807 39.7404 13.9861ZM10.9309 24.0637C10.9227 24.1746 10.9119 24.2503 10.9119 24.3287C10.9119 26.5757 10.9064 28.8199 10.92 31.0669C10.92 31.4184 10.977 31.7781 11.0612 32.1188C11.5962 34.2765 13.4265 35.6825 15.732 35.688C19.4822 35.6988 23.2297 35.6934 26.9799 35.688C29.9562 35.688 31.9522 33.6979 31.9549 30.7343C31.9603 27.13 31.9657 23.5283 31.9549 19.924C31.9522 18.8911 31.906 17.8582 31.8544 16.8253C31.8055 15.8383 31.2298 15.2083 30.3473 14.8757C29.462 14.5404 28.6663 14.7649 27.9766 15.4111C27.3927 15.96 27.2787 16.6684 27.2732 17.4066C27.2596 19.3129 27.2732 21.2192 27.2705 23.1281C27.2705 23.7717 27.0125 24.0259 26.3608 24.0529C22.5291 24.1962 19.6289 27.0867 19.4822 30.9074C19.4605 31.4914 19.1808 31.8105 18.6947 31.8078C18.2086 31.8051 17.9153 31.4725 17.9262 30.8939C17.9805 28.29 19.0342 26.1566 21.0138 24.4666C21.1523 24.3476 21.2935 24.2314 21.4972 24.061H10.9254L10.9309 24.0637ZM39.7649 12.3908C41.1281 12.334 42.0677 11.3687 42.0785 10.0032C42.0921 8.09695 42.0813 6.19067 42.0813 4.28169C42.0813 2.44842 41.177 1.55071 39.3304 1.55071C27.6615 1.55071 15.9927 1.55071 4.32388 1.55071C4.16094 1.55071 3.99801 1.5453 3.83779 1.55341C2.59405 1.61831 1.59744 2.54576 1.57571 3.78146C1.53498 5.91487 1.53498 8.04828 1.57571 10.179C1.60015 11.4498 2.69453 12.4341 3.88395 12.3584V7.79411C3.46576 7.68325 3.08286 7.47504 3.14532 6.99644C3.1779 6.73957 3.39515 6.46377 3.60425 6.2826C3.7346 6.17174 4.00344 6.20689 4.21254 6.20689C15.9465 6.20419 27.6806 6.20689 39.4119 6.20689C39.5585 6.20689 39.7404 6.15552 39.8436 6.22312C40.0853 6.37995 40.3704 6.5557 40.4845 6.79635C40.6311 7.1046 40.4764 7.43178 40.1695 7.62917C40.0419 7.71299 39.8871 7.75625 39.7676 7.81033V12.3908H39.7649ZM35.0696 16.3034V10.0357C33.6901 9.56789 32.9841 9.08118 32.4844 8.14832C32.3079 7.81574 32.1015 7.74814 31.7621 7.75084C29.7009 7.76436 27.6398 7.75625 25.5787 7.75625H25.0383C25.1822 7.96446 25.28 8.10506 25.3777 8.24566C27.0343 10.6251 26.8469 14.1889 24.9514 16.3683C23.2297 18.3503 20.3947 18.3692 18.7056 16.3656C17.2772 14.6729 16.9079 12.6909 17.3043 10.5467C17.4917 9.53544 17.9452 8.63774 18.616 7.75896C16.2127 7.75896 13.8963 7.75896 11.5799 7.76707C11.4794 7.76707 11.3355 7.86171 11.2866 7.95364C10.7028 9.04603 9.8012 9.72202 8.5982 10.0222V16.3575C10.2221 16.782 11.2187 17.8041 11.6342 19.3751H25.7172C25.7172 18.6288 25.7063 17.9041 25.7172 17.1822C25.7471 15.6193 26.4667 14.4512 27.8544 13.7509C29.2637 13.037 30.6541 13.1831 31.9359 14.0997C32.9108 14.7973 33.386 15.7978 33.5326 16.974C34.0377 16.755 34.5238 16.5441 35.0669 16.3088L35.0696 16.3034ZM21.432 43.451C23.8516 43.451 26.2685 43.4564 28.688 43.451C29.7362 43.4483 30.3853 42.7993 30.3934 41.7529C30.4016 40.8146 30.4016 39.8791 30.3934 38.9408C30.3853 37.8971 29.7362 37.2454 28.688 37.2427C23.8516 37.2373 19.0124 37.2373 14.176 37.2427C13.1223 37.2427 12.4815 37.8917 12.4733 38.9381C12.4652 39.8277 12.4733 40.7173 12.4733 41.6042C12.4733 42.8426 13.0816 43.4483 14.3253 43.4483C16.696 43.4483 19.0667 43.4483 21.4347 43.4483L21.432 43.451ZM25.6982 20.9488H25.1279C20.4707 20.9488 15.8135 20.9488 11.1563 20.9488C10.4095 20.9488 10.2004 20.7622 10.1271 20.043C10.0049 18.8181 9.14674 17.969 7.91659 17.8501C7.21868 17.7825 7.01773 17.5661 7.01773 16.8658C7.01773 14.4106 7.01773 11.9528 7.01773 9.49759C7.01773 8.82431 7.22955 8.59988 7.88672 8.52958C8.47328 8.46739 9.01096 8.29704 9.45903 7.786H5.45627V8.28893C5.45627 12.1502 5.45627 16.0114 5.45627 19.8726C5.45627 21.5626 6.40401 22.4981 8.11754 22.4981C13.7958 22.4981 19.4768 22.4981 25.1551 22.4981H25.6955V20.9434L25.6982 20.9488ZM24.9433 12.0204C24.8862 10.8198 24.6147 9.7085 23.8217 8.77564C22.6893 7.4453 20.9595 7.44259 19.8244 8.76752C18.3444 10.498 18.339 13.5454 19.819 15.2786C20.9568 16.6117 22.6703 16.6171 23.8109 15.2813C24.6174 14.3376 24.8917 13.2101 24.9433 12.0177V12.0204ZM33.5245 22.5062C34.2305 22.5062 34.8768 22.5062 35.5259 22.5062C37.2367 22.5062 38.1871 21.568 38.1871 19.8807C38.1871 16.0195 38.1871 12.1583 38.1871 8.29974C38.1871 8.1294 38.1871 7.95905 38.1871 7.79951H34.1844C34.6514 8.28352 35.1756 8.46739 35.754 8.53499C36.4166 8.6134 36.6257 8.83512 36.6257 9.49759C36.6257 11.9528 36.6257 14.4079 36.6257 16.8631C36.6257 17.5634 36.4193 17.7879 35.7322 17.8528C34.5401 17.9636 33.644 18.7721 33.5408 19.9429C33.4675 20.773 33.5272 21.6139 33.5272 22.5062H33.5245Z" fill="#F37F18"/>
</svg>
