<svg width="44" height="45" viewBox="0 0 44 45" fill="none" xmlns="http://www.w3.org/2000/svg">
<g clip-path="url(#clip0_162_1464)">
<path d="M25.4602 0C26.9865 0.990431 28.5255 1.96566 30.0389 2.97636C33.0863 5.01548 36.1209 7.07487 39.158 9.13172C40.3928 9.96763 40.6024 11.11 39.7562 12.3462C39.1784 13.1897 38.6007 14.0332 37.9897 14.9274C38.2709 14.9426 38.4882 14.94 38.7029 14.9679C39.8406 15.125 40.6331 15.9786 40.6331 17.121C40.6331 17.6454 40.7353 18.0431 41.1444 18.4256C41.6659 18.9119 41.873 19.5806 41.873 20.3C41.873 22.1466 41.873 23.9907 41.873 25.8373C41.873 25.9944 41.873 26.1514 41.873 26.3642C42.1491 26.3642 42.3817 26.3566 42.6144 26.3642C43.4095 26.3997 44 26.9924 44.0026 27.7852C44.0102 30.0701 44.0102 32.3549 44.0026 34.6397C44.0026 35.4605 43.3967 36.0532 42.5428 36.0988C42.3383 36.1089 42.1338 36.0988 41.8755 36.0988C41.8755 36.2888 41.8755 36.4458 41.8755 36.6003C41.8755 38.4165 41.8781 40.2328 41.8755 42.049C41.873 43.7816 40.6408 44.9949 38.8819 44.9949C26.9226 44.9949 14.9632 44.9949 3.00389 44.9949C1.24246 44.9949 0.0127825 43.7867 0.0127825 42.0515C0 34.8322 0.00511301 27.6105 0 20.3912C0 19.2691 0.480623 18.4332 1.41886 17.8202C1.54669 17.7366 1.66684 17.5339 1.67195 17.3819C1.73587 15.7557 2.56162 14.9527 4.20545 14.9502C4.63239 14.9502 5.05677 14.9502 5.51694 14.9502C5.60386 14.1295 5.69078 13.3467 5.76747 12.564C6.01034 10.1044 6.24043 7.64227 6.49608 5.18266C6.60856 4.09597 7.51868 3.28793 8.61798 3.35125C10.0164 3.42978 11.4122 3.58176 12.8081 3.71855C14.7613 3.90853 16.7144 4.11371 18.6702 4.30875C19.1584 4.35688 19.4422 4.61525 19.4167 4.99775C19.3911 5.40304 19.0408 5.65128 18.5551 5.60315C15.4413 5.29412 12.3275 4.98002 9.21109 4.67098C9.00657 4.65072 8.79693 4.63805 8.59241 4.64058C8.16036 4.64565 7.85614 4.90149 7.81012 5.32198C7.6823 6.49986 7.56981 7.68027 7.44965 8.85815C7.2528 10.8086 7.05595 12.7591 6.86166 14.7095C6.77474 15.5936 6.69293 16.4802 6.60856 17.3617C7.40364 17.5136 7.39597 17.5061 7.46499 16.7664C7.69252 14.3929 7.93028 12.0194 8.17826 9.64847C8.2345 9.10386 8.51572 8.6631 9.03469 8.45032C9.87066 8.11089 10.5175 7.57388 11.0262 6.83929C11.3202 6.41373 11.7932 6.22629 12.307 6.27188C13.9381 6.4188 15.5691 6.58852 17.1976 6.76077C17.6885 6.81143 17.9543 7.09513 17.9083 7.47762C17.8623 7.88038 17.5121 8.09316 17.0161 8.0425C15.4745 7.88292 13.933 7.72586 12.3888 7.58908C12.2482 7.57641 12.0386 7.67267 11.9542 7.78666C11.3764 8.57951 10.6427 9.16465 9.7454 9.56487C9.62268 9.6206 9.49997 9.81312 9.48463 9.95243C9.29545 11.6825 9.12672 13.4151 8.95288 15.1478C8.87874 15.8874 8.8046 16.6271 8.72535 17.4199C9.76585 17.4199 10.768 17.4326 11.7676 17.4047C11.8903 17.4022 12.0309 17.197 12.1255 17.0602C15.6969 11.875 19.2709 6.68984 22.827 1.49451C23.2642 0.853645 23.7218 0.268505 24.4836 0C24.8083 0 25.133 0 25.4602 0ZM40.5359 40.3797H39.8968C29.7398 40.3797 19.5854 40.3797 9.42839 40.3797C9.22131 40.3797 9.01168 40.3797 8.80971 40.3518C8.46714 40.3012 8.28307 40.063 8.28052 39.7439C8.2754 39.4044 8.46459 39.1587 8.83017 39.1081C9.01935 39.0827 9.21364 39.0878 9.40538 39.0878C19.5752 39.0878 29.7475 39.0878 39.9173 39.0878C40.1192 39.0878 40.3186 39.0878 40.5232 39.0878V36.1039C40.2905 36.1039 40.0885 36.1039 39.884 36.1039C37.8593 36.0836 35.8294 36.1646 33.8123 36.0203C31.3018 35.8379 29.3972 33.548 29.5072 31.0706C29.6248 28.4641 31.6649 26.4199 34.2469 26.3743C36.1822 26.3414 38.12 26.3617 40.0553 26.3591C40.2113 26.3591 40.3672 26.3591 40.5232 26.3591V23.3954H1.33961V39.0878C1.52368 39.0878 1.68218 39.0878 1.84068 39.0878C2.75847 39.0878 3.6737 39.0853 4.59148 39.0878C5.15647 39.0903 5.41723 39.293 5.4249 39.716C5.43257 40.1517 5.15903 40.3721 4.57614 40.3771C3.92679 40.3822 3.27488 40.3771 2.62553 40.3771C2.20115 40.3771 1.77677 40.3771 1.33194 40.3771C1.33194 41.094 1.27825 41.7577 1.35495 42.4061C1.39074 42.7228 1.62338 43.0495 1.84835 43.3028C2.15769 43.6499 2.60763 43.7005 3.07036 43.7005C14.9862 43.6955 26.9021 43.6955 38.8154 43.6955C38.9177 43.6955 39.0225 43.6955 39.1247 43.6904C39.8099 43.6473 40.4644 43.1129 40.5257 42.4391C40.5845 41.7729 40.5385 41.0991 40.5385 40.3771L40.5359 40.3797ZM1.32938 22.0377H40.541C40.541 21.369 40.5743 20.7256 40.5334 20.0847C40.4797 19.2767 39.7562 18.7245 38.8103 18.7245C26.8868 18.7245 14.9607 18.7245 3.03713 18.7245C2.94765 18.7245 2.85817 18.7219 2.77125 18.7295C2.03753 18.8055 1.3933 19.34 1.34216 20.0113C1.29103 20.6775 1.33194 21.3487 1.33194 22.0352L1.32938 22.0377ZM19.2556 17.3971C19.2991 17.1565 19.3297 16.926 19.3809 16.698C19.9561 14.1877 22.2518 12.3918 24.7342 12.5058C27.4262 12.6299 29.5123 14.4993 29.883 17.1337C29.9162 17.3642 30.0006 17.4275 30.2153 17.425C30.7624 17.4174 31.3095 17.4427 31.8566 17.4098C32.0126 17.3997 32.2068 17.273 32.2989 17.1413C33.0454 16.0875 33.7638 15.0135 34.5077 13.9572C34.6662 13.7343 34.6688 13.5621 34.546 13.3239C34.137 12.5412 33.9504 11.7003 34.045 10.8213C34.0808 10.4945 33.9811 10.3172 33.7152 10.1399C31.5958 8.72389 29.4842 7.30031 27.3802 5.86659C27.1245 5.69181 26.9251 5.67154 26.6541 5.8058C25.8999 6.18069 25.0895 6.35801 24.2536 6.27188C23.8547 6.22882 23.64 6.33014 23.4227 6.65184C21.063 10.107 18.6906 13.5494 16.3207 16.9969C16.2415 17.1134 16.1648 17.2325 16.0574 17.3971H19.2582H19.2556ZM38.143 27.6586C37.123 27.6586 36.1055 27.651 35.0855 27.6611C34.6151 27.6662 34.1319 27.6434 33.6768 27.7397C31.895 28.1171 30.6576 29.7433 30.8212 31.4379C31.0053 33.3681 32.442 34.7689 34.3696 34.7943C37.0131 34.8323 39.6565 34.8019 42.2999 34.812C42.6297 34.812 42.6911 34.6777 42.6911 34.3915C42.6834 32.284 42.6808 30.1765 42.6936 28.0715C42.6936 27.7397 42.5914 27.6485 42.2641 27.651C40.8913 27.6662 39.5184 27.6586 38.143 27.6561V27.6586ZM33.7407 17.3718C34.3594 17.5238 34.7378 17.3921 35.0804 16.8677C36.2461 15.0895 37.4784 13.3543 38.6825 11.5989C39.1043 10.9834 39.0353 10.6212 38.4192 10.2032C34.1626 7.32564 29.9034 4.4506 25.6443 1.5781C24.9822 1.13228 24.6217 1.20321 24.1718 1.85421C20.6949 6.90768 17.2206 11.9612 13.7438 17.0146C13.6645 17.1286 13.5955 17.2527 13.5162 17.3819C14.1375 17.5288 14.5286 17.3794 14.8661 16.8323C15.5435 15.7354 16.3131 14.6943 17.0442 13.6305C18.8389 11.0189 20.6412 8.40979 22.4282 5.79313C22.8066 5.24092 23.2898 4.87616 23.9698 4.95722C24.7955 5.05601 25.5523 4.90656 26.2834 4.54939C26.8305 4.28089 27.3699 4.30622 27.8787 4.64818C30.1514 6.17563 32.4216 7.7056 34.6867 9.24317C35.2056 9.59527 35.428 10.1095 35.3513 10.7276C35.2619 11.4495 35.382 12.1334 35.7246 12.7641C36.0953 13.4481 36.0339 14.0636 35.584 14.6893C34.9628 15.5581 34.3696 16.4472 33.7356 17.3693L33.7407 17.3718ZM28.5485 17.3997C28.6431 15.6442 26.7257 13.8686 24.7009 13.8052C22.6174 13.7419 20.6566 15.4669 20.6361 17.3997H28.5485ZM39.3011 17.4073C39.3727 17.0425 39.3139 16.7309 39.0353 16.4802C38.8129 16.2826 37.3173 16.1458 37.0693 16.2952C37.0438 16.3104 37.0233 16.3307 37.0054 16.3535C36.7779 16.6853 36.5503 17.0172 36.2845 17.4047H39.3037L39.3011 17.4073ZM5.38911 16.2572C4.91872 16.2572 4.46366 16.2547 4.0086 16.2572C3.27488 16.2648 2.94509 16.6448 3.03713 17.3997H5.27407C5.31242 17.0298 5.34821 16.6701 5.38911 16.2572Z" fill="#9A37BB"/>
<path d="M37.1886 31.2049C37.1988 32.6361 36.0356 33.8165 34.604 33.8317C33.1442 33.8469 31.9426 32.6791 31.9375 31.2404C31.9324 29.7864 33.1084 28.6161 34.5707 28.6186C36.0228 28.6212 37.1809 29.7661 37.1911 31.2074L37.1886 31.2049ZM33.2541 31.2302C33.2592 31.9597 33.8498 32.5348 34.5861 32.5246C35.2942 32.517 35.8771 31.9369 35.8848 31.2328C35.8924 30.5159 35.2891 29.908 34.5682 29.9054C33.8447 29.9054 33.249 30.5032 33.2541 31.2277V31.2302Z" fill="#9A37BB"/>
</g>
<defs>
<clipPath id="clip0_162_1464">
<rect width="44" height="45" fill="white"/>
</clipPath>
</defs>
</svg>
