<svg width="50" height="39" viewBox="0 0 50 39" fill="none" xmlns="http://www.w3.org/2000/svg">
<g clip-path="url(#clip0_162_1501)">
<path d="M0 26.0097V0H45.5717V17.0701H43.9444V1.63943H1.67811V24.3912H26.3031V26.0139H0V26.0097Z" fill="#A42466"/>
<path d="M49.9998 27.5907C49.9786 33.9107 44.7578 39.0208 38.3463 39C31.9686 38.975 26.7902 33.8189 26.8283 27.524C26.8665 21.2208 32.0745 16.1356 38.4649 16.1606C44.8129 16.1857 50.0167 21.3459 49.9998 27.5907ZM38.4013 17.8084C32.9051 17.8168 28.4641 22.2052 28.4725 27.6241C28.481 32.9804 32.9941 37.3939 38.431 37.3689C43.9103 37.3439 48.3259 32.9679 48.3217 27.5657C48.3174 22.1677 43.8722 17.7959 38.4013 17.8042V17.8084Z" fill="#A42466"/>
<path d="M19.7391 21.9633H8.14063C8.18725 20.8453 8.07707 19.7565 7.22954 18.8847C6.39048 18.0253 5.33531 17.8084 4.14453 17.8668V7.54218C6.91595 7.98854 8.39913 6.77461 8.66186 4.04224H19.7391C19.7772 4.07144 19.8154 4.10064 19.8535 4.12984C16.7219 6.3074 14.9929 9.20247 14.9929 13.0028C14.9929 16.8031 16.7176 19.6981 19.8535 21.8757C19.8154 21.9049 19.7772 21.9341 19.7391 21.9633ZM5.78026 16.3067C7.76348 16.8072 9.08139 17.9628 9.61533 19.89C9.72551 20.2822 9.89502 20.3447 10.2425 20.3406C11.9037 20.328 13.5606 20.3406 15.2217 20.3322C15.3658 20.3322 15.5057 20.3114 15.654 20.2988C12.5096 15.4014 12.5224 10.5457 15.6836 5.65663C13.8615 5.65663 12.0859 5.64829 10.3145 5.67332C10.1959 5.67332 10.0264 5.87356 9.97553 6.01539C9.59415 7.00405 9.02206 7.86757 8.09826 8.40987C7.39481 8.82285 6.60237 9.08566 5.7845 9.44442V16.3108L5.78026 16.3067Z" fill="#A42466"/>
<path d="M37.3416 4.04642C37.2865 5.21446 37.4348 6.29072 38.2993 7.15841C39.1637 8.02609 40.2655 8.15541 41.4394 8.10953V15.6642H39.8036V9.71141C37.5916 9.18996 36.2313 7.85506 35.7312 5.68167H29.8113C32.5657 9.68221 32.8751 13.8705 31.0359 18.3174C30.7435 18.2047 30.4935 18.1129 30.2435 18.017C30.0062 17.9252 29.7689 17.8335 29.4722 17.7167C30.5571 15.2846 30.8283 12.7984 30.1757 10.2245C29.5146 7.60894 27.8407 5.71922 25.7812 4.05476H37.3416V4.04642Z" fill="#A42466"/>
<path d="M41.9997 32.4381C40.5165 30.9823 39.0037 29.4972 37.4951 28.0079C37.4018 27.912 37.3298 27.7493 37.3298 27.6158C37.3255 25.5592 37.3298 23.5068 37.3383 21.4502C37.3383 21.421 37.3595 21.3918 37.3849 21.3251H38.9952C38.9952 21.5211 38.9952 21.7005 38.9952 21.8799C38.9909 23.4818 38.9952 25.0795 38.9698 26.6814C38.9655 27.0318 39.0757 27.2737 39.3257 27.5157C40.4953 28.6503 41.648 29.8017 42.8175 30.9405C42.9489 31.0699 43.1269 31.1533 43.3176 31.2784C42.8091 31.7248 42.4192 32.071 41.9997 32.4381Z" fill="#A42466"/>
<path d="M23.2093 8.00525C25.1926 8.00525 26.0952 9.2442 26.146 10.746H24.5061C24.4933 10.0076 24.1501 9.45695 23.2348 9.45695C22.472 9.45695 21.938 9.88245 21.938 10.8836C21.938 11.3717 22.0779 11.8347 22.2177 12.2853H24.6078V13.4867H22.5356C22.5483 13.5868 22.561 13.6869 22.561 13.787C22.561 14.4754 22.3067 15.2262 21.7092 15.8144H26.2096V17.2161H20.0438L19.7641 16.315C20.4761 15.6267 20.8702 14.9634 20.8702 13.7745C20.8702 13.6744 20.8574 13.5868 20.8447 13.4867H19.4336V12.2853H20.4888C20.3616 11.8598 20.2345 11.3717 20.2345 10.746C20.2345 9.01894 21.4677 8.00525 23.2093 8.00525Z" fill="#A42466"/>
</g>
<defs>
<clipPath id="clip0_162_1501">
<rect width="50" height="39" fill="white"/>
</clipPath>
</defs>
</svg>
